<svg xmlns="http://www.w3.org/2000/svg" width="140" height="68" viewBox="0 0 140 68" fill="none"><path d="M126.774 4.737c1.31 1.95 2.567 4.356 1.948 6.935-2.133-1.217-3.849-3.203-5.209-5.165-1.37-1.974-2.793-4.073-3.281-6.507 2.691.686 5.1 2.59 6.542 4.737m-115.648 6.93c-.617-2.579.643-4.984 1.955-6.933C14.525 2.588 16.935.686 19.626.002c-.489 2.433-1.914 4.532-3.285 6.505-1.363 1.96-3.08 3.945-5.215 5.16" fill="currentColor"></path><path d="M9.248 16.615c.481-2.042.47-4.278.013-6.194-.403-1.683-.99-4.063-2.92-4.866-1.402 2.242-1.966 5.295-1.148 7.583.59 1.655 1.654 3.842 3.858 4.181 2.023.465 4.069-.61 5.684-1.498 1.796-.987 3.556-2.558 4.625-4.425-1.961-.986-4.194-.186-5.875.582-1.81.827-3.474 2.601-4.237 4.637m39.26 1.962V8.323h-3.513v3.736h-5.27V8.323h-3.512v10.254h3.513v-3.723h5.27v3.723zM60.152 8.323h3.88l-5.506 6.871v3.383H55v-3.37l-5.44-6.884h3.998l3.251 4.102z" fill="currentColor"></path><path fill-rule="evenodd" clip-rule="evenodd" d="M76.263 9.198c.694.549 1.088 1.476 1.088 2.822 0 1.097-.276 1.92-.8 2.495-.708.81-1.874 1.175-3.395 1.188-.472.014-4.509 0-4.509 0v2.874h-3.526V8.323h7.983c1.415 0 2.49.288 3.159.875m-2.609 3.619c.105-.183.158-.418.158-.745 0-.34-.066-.627-.184-.783-.223-.327-.642-.484-1.324-.484h-3.683v2.508h3.657c.734 0 1.167-.17 1.376-.496" fill="currentColor"></path><path d="M89.594 16.03v2.547h-10.84V8.323h10.749v2.56h-7.289v1.32h7.079v2.495h-7.079v1.332z" fill="currentColor"></path><path fill-rule="evenodd" clip-rule="evenodd" d="M102.754 9.368c.474.483.695 1.15.695 2.077 0 .797-.196 1.476-.524 1.933-.367.497-.931.915-1.625 1.02l3.107 4.18H100.5l-2.555-3.62H94.76v3.62h-3.5V8.322h8.192c1.625 0 2.687.392 3.302 1.045m-2.83 2.94c.092-.158.117-.367.117-.536 0-.196-.025-.405-.118-.536-.183-.34-.55-.431-1.1-.431h-4.05v1.868h4.115c.564 0 .905-.104 1.035-.366" fill="currentColor"></path><path d="M87.717 31.438c0-2.344-1.495-3.576-4.98-3.952-.566-.069-2.231-.24-3.279-.326-2.695-.29-3.502-.444-3.502-1.129 0-.615.635-.906 3.056-.906 1.717 0 2.678.325 3.056.82.189.24.257.428.275.617h4.944a4.7 4.7 0 0 0-.498-1.506c-.893-1.71-3.039-3.08-7.657-3.08-5.202 0-8.052 1.831-8.052 4.227 0 2.31 1.614 3.66 5.975 4.054.493.042 1.552.142 2.419.224l.053.005h.01l.004.001.467.044c2.283.24 2.901.393 2.901 1.112 0 .667-.6 1.027-3.125 1.027-1.957 0-3.107-.291-3.52-.787a1.7 1.7 0 0 1-.325-.719h-4.945c.052.342.138.89.326 1.335.842 1.882 3.04 3.319 8.138 3.319 5.477 0 8.259-1.54 8.259-4.38" fill="currentColor"></path><path fill-rule="evenodd" clip-rule="evenodd" d="M52.666 34.244c.515-.599.772-1.506.772-2.43 0-.787-.206-1.54-.635-2.035-.515-.668-1.425-1.147-2.386-1.267.652-.085 1.27-.427 1.63-.872.447-.53.653-1.25.653-2.122s-.257-1.642-.841-2.224c-.653-.667-1.837-1.112-3.691-1.112h-11.64v13.43h11.966c1.906 0 3.382-.41 4.172-1.368m-4.739-7.921c0 .325-.103.598-.274.787-.24.222-.687.308-1.271.308h-5.356v-2.19h5.236c.652 0 1.099.085 1.339.307.223.189.326.462.326.788m.515 5.885c-.274.257-.755.36-1.562.36h-5.855v-2.242h5.907c.755 0 1.201.103 1.459.325.206.205.291.462.291.804 0 .325-.068.582-.24.753" fill="currentColor"></path><path d="M69.61 32.277v3.336H55.412v-13.43H69.49v3.353h-9.545v1.728h9.27v3.268h-9.27v1.745zm34.812-6.724v-3.37H88.336v3.37h5.683v10.06h4.703v-10.06zm-.409 21.944h-.756l-.055-.726c-.231.367-.72.808-1.752.808-1.745 0-2.556-1.047-2.556-3.723 0-2.068.517-3.732 2.647-3.732 1.846 0 2.409 1.204 2.436 2.5h-.923c-.027-.845-.406-1.627-1.494-1.627-1.31 0-1.689.782-1.689 2.887 0 2.197.472 2.887 1.708 2.887.867 0 1.373-.478 1.541-1.048v-1.37h-1.864v-.837h2.748v2.115c0 .632.006 1.306.008 1.645l.001.161z" fill="currentColor"></path><path fill-rule="evenodd" clip-rule="evenodd" d="M36.706 45.668h2.583l.535 1.83h.978l-2.14-7.281h-1.19l-2.288 7.28h.968zm2.352-.818h-2.103l.932-3.006c.009-.046.157-.699.157-.699l.102.483.045.216c.01.046.867 3.006.867 3.006" fill="currentColor"></path><path d="M47.804 40.217h.885l-1.725 7.28h-1.098s-1.227-5.662-1.227-5.901c-.009.239-1.264 5.902-1.264 5.902h-1.097l-1.725-7.281h.996s1.338 5.764 1.338 5.994c0-.23 1.227-5.994 1.227-5.994h1.097s1.227 5.773 1.227 5.994c0-.221 1.365-5.994 1.365-5.994" fill="currentColor"></path><path fill-rule="evenodd" clip-rule="evenodd" d="M52.482 45.668H49.9l-.553 1.83h-.969l2.288-7.281h1.19l2.14 7.28h-.978zm-2.334-.818h2.103s-.857-2.96-.867-3.006l-.07-.331-.077-.368s-.148.653-.157.699zm7.395-4.633c1.125 0 1.734.524 1.734 2.05 0 1.296-.489 1.728-.996 1.875l1.402 3.355h-1.015l-1.3-3.17h-1.772v3.17h-.922v-7.28zm-.139 3.282c.73 0 .904-.377.904-1.205 0-.937-.276-1.222-.95-1.222h-1.752v2.427zm8.014.239c0 1.719-.13 2.417-.498 2.941-.37.506-.95.819-1.891.819h-2.51v-7.281h2.445c.923 0 1.642.276 1.974.772.37.533.48 1.195.48 2.749m-2.583 2.895c.563 0 1.033-.147 1.273-.468.258-.35.332-1.058.332-2.427 0-1.15-.064-1.765-.332-2.16-.249-.34-.729-.488-1.291-.488H61.45v5.543z" fill="currentColor"></path><path d="M75.147 40.217h.886l-1.725 7.28H73.21s-1.227-5.662-1.227-5.901c-.01.239-1.264 5.902-1.264 5.902h-1.097l-1.725-7.281h.996s1.337 5.764 1.337 5.994c0-.23 1.227-5.994 1.227-5.994h1.098s1.227 5.773 1.227 5.994c0-.221 1.365-5.994 1.365-5.994m2.527 0v7.28h-.96v-7.28zm6.003 0v7.28h-1.06l-2.722-5.644v5.645H79v-7.281h1.116l2.657 5.561v-5.561zm5.984 0v7.28h-1.06l-2.722-5.644v5.645h-.895v-7.281h1.117l2.657 5.561v-5.561zm2.259 0v7.28h-.96v-7.28zm6.004 0v7.28h-1.061l-2.722-5.644v5.645h-.895v-7.281h1.117l2.657 5.561v-5.561zM47.09 61.847l-1.057-3.242-1.058 3.242h-3.42l2.767 2.004-1.057 3.242 2.768-2.004 2.767 2.004-1.057-3.242 2.768-2.004zm12.232 0-1.079-3.242-1.078 3.242h-3.491l2.824 2.003-1.079 3.243 2.824-2.004 2.825 2.004-1.08-3.243 2.825-2.003zm12.104 0-1.08-3.242-1.078 3.242h-3.49L68.6 63.85l-1.078 3.243 2.824-2.004 2.824 2.004-1.079-3.243 2.824-2.003zm12.105 0-1.079-3.242-1.078 3.242h-3.491l2.824 2.003-1.079 3.243 2.824-2.004 2.824 2.004-1.078-3.243 2.824-2.003zm12.183 0-1.056-3.242-1.058 3.242h-3.42l2.767 2.003-1.056 3.243 2.767-2.004 2.767 2.004-1.057-3.243 2.768-2.003zM3.01 22.126c.995 1.513 2.535 3.407 4.78 3.353 2.04.102 3.804-1.286 5.192-2.445 1.496-1.248 2.846-3.072 3.415-5.045-2.087-.605-4.086.516-5.576 1.574-1.556 1.104-2.753 3.126-3.01 5.201a13.4 13.4 0 0 0-1.495-5.957c-.833-1.581-1.993-3.72-4.062-4.147-.815 2.461-.555 5.472.757 7.466" fill="currentColor"></path><path d="M8.46 33.625c-2.082.347-4.114-.924-5.434-2.42-1.699-1.926-2.71-4.51-2.503-7.097 2.14.054 3.76 1.897 4.958 3.291a13.8 13.8 0 0 1 2.854 5.514c-.223-2.03.462-4.223 1.731-5.578 1.226-1.308 2.943-2.733 5.08-2.504-.046 2.059-1.082 4.02-2.15 5.49-.996 1.369-2.53 3.062-4.535 3.304" fill="currentColor"></path><path d="M4.61 40.466c1.918 1.245 4.244 2.477 6.69 1.544 2.006-.707 3.281-2.72 4.066-4.566.83-1.957 1.386-4.214 1.002-6.356-2.205.195-4.033 1.767-5.004 3.685-1.015 2.006-1.21 4.394-.43 6.496-1.152-2.163-2.836-3.913-4.621-5.53C4.69 34.267 2.353 32.718 0 33.01c.448 2.9 2.224 5.908 4.61 7.456" fill="currentColor"></path><path d="M16.248 49.85c1.888-1.124 2.648-3.49 2.959-5.518.334-2.187.32-4.6-.591-6.674-2.19.61-3.694 2.574-4.19 4.726a8.6 8.6 0 0 0 1.193 6.632c-1.696-1.939-3.95-3.54-6.112-4.663-2.087-1.084-4.648-2.392-7.155-1.602 1.208 2.94 3.794 5.678 6.66 6.81 2.22.877 4.92 1.743 7.236.29" fill="currentColor"></path><path d="M25.189 50.61c.277 2.11.269 4.788-1.376 6.413-2.055 2.096-5.235 1.692-7.689 1.23-3.293-.62-7-2.858-8.987-5.838 2.426-1.332 5.394-.48 7.797.21l.137.039c2.682.769 5.54 2.007 7.93 3.7-1.908-1.718-3.297-4.24-3.365-6.78-.062-2.273.928-4.704 3.058-5.787 1.487 1.945 2.184 4.442 2.495 6.813" fill="currentColor"></path><path d="M34.744 63.002c1.211-2.297.011-4.994-.945-6.987-1.13-2.356-2.675-4.757-4.886-6.481-2.122 1.823-1.92 4.43-1.29 6.698.75 2.695 3.352 4.993 6.046 6.302-3.12-1.16-6.527-1.855-9.769-2.06l-.328-.022c-2.604-.169-5.995-.389-8.07 1.51 3.138 2.659 7.595 4.192 11.523 4.112 2.632-.053 6.244-.363 7.719-3.072m95.851-46.379c-.76-2.038-2.423-3.814-4.233-4.643-1.681-.768-3.913-1.57-5.874-.586 1.068 1.868 2.825 3.44 4.62 4.428 1.614.889 3.658 1.966 5.682 1.503 2.205-.337 3.27-2.524 3.863-4.179.821-2.287.26-5.34-1.141-7.584-1.931.802-2.52 3.181-2.923 4.865-.46 1.916-.473 4.152.006 6.196" fill="currentColor"></path><path d="M129.022 19.568c1.555 1.105 2.748 3.125 3.004 5.199.023-2.078.59-4.224 1.501-5.952.833-1.581 1.996-3.718 4.066-4.144.812 2.462.55 5.473-.765 7.466-.994 1.51-2.533 3.4-4.773 3.349-2.044.104-3.809-1.287-5.198-2.448-1.495-1.25-2.843-3.075-3.41-5.048 2.087-.604 4.085.519 5.575 1.578" fill="currentColor"></path><path d="M131.498 32.926c.228-2.032-.454-4.23-1.725-5.587-1.223-1.31-2.939-2.736-5.076-2.509.043 2.06 1.077 4.022 2.145 5.492.994 1.37 2.525 3.063 4.529 3.307 2.084.352 4.118-.92 5.441-2.415 1.7-1.925 2.713-4.508 2.51-7.095-2.141.052-3.763 1.894-4.962 3.287a13.8 13.8 0 0 0-2.862 5.52" fill="currentColor"></path><path d="M128.463 34.777c1.014 2.007 1.206 4.395.424 6.497 1.154-2.163 2.841-3.912 4.627-5.529 1.623-1.469 3.962-3.016 6.315-2.723-.449 2.9-2.229 5.907-4.615 7.453-1.919 1.241-4.243 2.47-6.685 1.542-2.009-.706-3.285-2.722-4.069-4.573-.83-1.957-1.383-4.214-.996-6.356 2.203.197 4.031 1.77 4.999 3.69" fill="currentColor"></path><path d="M124.198 49.012a8.62 8.62 0 0 0 1.198-6.627c-.494-2.152-1.997-4.117-4.187-4.729-.913 2.074-.929 4.486-.598 6.673.309 2.024 1.065 4.386 2.941 5.515 2.318 1.465 5.025.598 7.248-.278 2.867-1.13 5.456-3.866 6.667-6.805-2.506-.792-5.068.514-7.156 1.597-2.161 1.12-4.417 2.718-6.113 4.654" fill="currentColor"></path><path d="M114.615 50.605c-.279 2.11-.275 4.787 1.37 6.414 2.052 2.098 5.233 1.695 7.687 1.236 3.294-.617 7.003-2.854 8.993-5.832-2.425-1.333-5.394-.484-7.797.203l-.139.04c-2.681.766-5.539 2.002-7.93 3.692 1.908-1.716 3.299-4.235 3.369-6.775.064-2.273-.924-4.705-3.052-5.79-1.49 1.944-2.188 4.441-2.501 6.812" fill="currentColor"></path><path d="M112.78 66.064c-2.632-.055-6.244-.368-7.716-3.078l-.021-.037c-1.175-2.29.02-4.968.972-6.949 1.133-2.355 2.68-4.755 4.891-6.477 2.122 1.824 1.917 4.432 1.284 6.698-.753 2.695-3.356 4.991-6.052 6.298 3.121-1.157 6.529-1.85 9.771-2.053l.33-.021c2.604-.167 5.995-.385 8.067 1.516-3.14 2.655-7.597 4.186-11.526 4.103" fill="currentColor"></path></svg>