<svg xmlns="http://www.w3.org/2000/svg" width="277" height="140" viewBox="0 0 277 140" fill="none"><path d="M21.605 30.096c-1.709-4.347-.967-9.346.607-13.55 1.656-4.423 4.539-8.834 8.848-11.16.214 4.66-1.208 9.266-2.763 13.42-1.397 3.734-3.112 7.714-5.944 10.803a85 85 0 0 0-1.003 6.998c.938-2.454 2.46-4.691 4.36-6.49 2.444-2.317 6.08-4.104 9.495-3.047-1 3.778-3.28 7.399-5.979 9.94-2.124 1.999-4.929 4.561-8.232 4.662-.137 3.42-.06 6.807.221 10.15.466-2.447 1.465-4.75 2.908-6.465 1.982-2.356 4.92-5.235 8.674-4.754-.205 3.824-1.729 7.741-3.85 10.685-1.686 2.34-3.912 5.321-7.07 6.091a81 81 0 0 0 2.104 9.674c.008-2.42.542-4.795 1.601-6.7 1.492-2.686 3.817-6.036 7.575-6.298.55 3.752-.196 7.852-1.701 11.114-1.203 2.607-2.808 5.931-5.732 7.307a80 80 0 0 0 4.347 9.894c-.585-2.75-.561-5.646.13-8.253.955-3.594 3.323-7.369 7.124-8.464 1.344 3.967 1.159 8.395.378 12.427-.642 3.32-1.905 7.22-4.734 9.377a80.5 80.5 0 0 0 6.128 8.586c-1.199-2.676-1.795-5.604-1.475-8.284.466-3.904 1.562-8.081 5.545-10.163 2.26 3.904 2.784 8.284 2.976 12.61.155 3.496-.348 7.81-2.774 10.655a81 81 0 0 0 8.623 7.774c-1.985-2.55-3.375-5.542-3.67-8.501-.416-4.18-.212-8.783 3.494-11.852 3.17 3.315 5.06 8.196 5.988 12.435.82 3.748 1.675 8.185-.276 11.873a83 83 0 0 0 12.51 6.72c-3.109-2.218-5.653-5.261-6.866-8.402-1.588-4.118-2.571-9.025.524-13.149 4.146 2.659 7.193 7.195 9.594 11.332 2.06 3.55 4.192 8.449 3.134 12.677a87 87 0 0 0 7.524 2.183l-.152.631a88 88 0 0 1-7.554-2.19c-1.72 5.09-7.357 6.772-11.916 7.515-6.494 1.057-14.228-.992-19.773-5.121 2.927-4.141 8.898-4.561 13.4-4.878l.059-.004a48.2 48.2 0 0 1 15.227 1.407 84 84 0 0 1-16.036-8.157l-.073.115c-2.709 4.398-8.148 4.57-12.418 4.292-5.793-.378-12.482-3.905-16.354-8.78 3.642-3.198 9.02-2.303 13.187-1.609l.02.003c4.652.774 9.734 2.463 14 5.063q-.61-.482-1.19-1.015a82 82 0 0 1-11.446-9.884q-.06.061-.123.121c-3.376 3.4-8.293 2.509-12.13 1.403-5.136-1.481-10.461-5.948-13.013-11.077 3.954-2.218 8.683-.39 12.36 1.056 4.037 1.587 8.308 4.126 11.592 7.362a19 19 0 0 1-.967-1.336 81 81 0 0 1-8.212-11.038l-.12.076c-3.82 2.467-8.148.68-11.577-1.077-4.65-2.382-8.387-7.618-10.002-12.768 4.125-1.322 8.201 1.274 11.37 3.33 3.465 2.249 6.975 5.456 9.384 9.134a17 17 0 0 1-.494-1.11 81 81 0 0 1-5.873-12.692l-.082.028-.007.002c-3.473 1.322-7.34-.733-9.861-2.986-3.505-3.132-5.975-7.946-6.554-12.65 3.621-.47 7.032 2.335 9.364 4.727 2.685 2.752 5.094 6.006 6.575 9.62a16 16 0 0 1-.278-1.194 81 81 0 0 1-3.043-12.768l-.052.007-.018.003c-3.671.613-7.066-2.181-9.094-4.893-2.845-3.806-4.312-9.073-3.944-13.846 3.657.256 6.442 3.739 8.248 6.556 2.09 3.262 3.823 6.953 4.582 10.815a16 16 0 0 1-.041-.926 82.6 82.6 0 0 1-.575-13.559h-.01c-3.733-.135-6.492-3.604-7.916-6.682-2.038-4.404-2.366-9.97-1.006-14.662 3.558 1 5.541 5.085 6.712 8.23 1.35 3.626 2.292 7.58 2.3 11.512a85 85 0 0 1 1.18-9.961m73.514-8.142v15.75c0 6.927-6.266 10.26-15.764 10.26-8.878 0-15.243-3.3-15.243-11.077V21.954h8.846v14.933c0 2.777 2.382 4.509 6.756 4.509 4.178 0 6.658-1.797 6.658-4.477V21.954zm29.461 18.821v6.829h-24.446v-25.65h8.845v18.82zm26.289-12.384v-6.437h-30.583v6.437h10.804v19.213h8.943V28.391z" fill="currentColor"></path><path fill-rule="evenodd" clip-rule="evenodd" d="M182.248 24.568c1.175 1.21 1.732 2.876 1.732 5.195 0 1.994-.489 3.693-1.307 4.836-.914 1.242-2.318 2.288-4.047 2.55l7.737 10.455h-9.727l-6.366-9.051h-7.93v9.051h-8.715v-25.65h20.399c4.048 0 6.691.98 8.224 2.614M175.2 31.92c.228-.392.293-.915.293-1.34 0-.49-.065-1.013-.293-1.34-.458-.849-1.372-1.077-2.744-1.077h-10.084v4.672h10.248c1.404 0 2.254-.261 2.58-.915m22.924 10.946h13.839l2.251 4.738h9.434l-12.925-25.65h-10.542l-13.675 25.65h9.235zm11.064-5.75h-8.192l3.232-6.176.979-2.353.915 2.32zm-27.875 15.32c-5.476 0-8.356 2.598-8.356 6.415 0 4.31 3.023 6.495 8.356 6.495 5.871 0 8.339-2.534 8.339-6.495 0-4.023-2.786-6.416-8.339-6.416m0 9.726c-3.117 0-4.021-1.283-4.021-3.263 0-1.949.982-3.232 4.005-3.232 3.307 0 4.05 1.442 4.05 3.232 0 1.901-.901 3.263-4.034 3.263" fill="currentColor"></path><path d="M164.828 65.157v-7.366h-8.26v2.677h4.415c-.032.206-.19.602-.396.84-.459.538-1.677 1.014-3.26 1.014-1.645 0-2.705-.428-3.275-1.094-.38-.49-.601-1.188-.601-2.233 0-1.093.221-1.838.648-2.329.618-.697 1.662-.998 3.197-.998 1.377 0 2.326.317 2.769.713.285.238.506.57.554.792h4.098c-.016-.396-.142-1.03-.364-1.489-.981-1.996-3.259-3.184-7.136-3.184-3.371 0-5.633 1.03-6.883 2.582-.823 1.062-1.203 2.392-1.203 3.881 0 1.648.443 3.057 1.171 3.992 1.234 1.6 3.434 2.392 6.076 2.392 2.326 0 3.924-.554 4.937-1.394l.111 1.204zm-43.096-7.522c3.212.348 4.589 1.489 4.589 3.659 0 2.63-2.564 4.055-7.612 4.055-4.699 0-6.725-1.33-7.5-3.073-.174-.412-.253-.919-.301-1.236h4.558c.031.19.142.476.3.666.38.46 1.44.728 3.244.728 2.326 0 2.88-.332 2.88-.95 0-.666-.57-.808-2.674-1.03-.839-.079-2.168-.206-2.722-.253-4.019-.365-5.506-1.616-5.506-3.755 0-2.218 2.626-3.912 7.421-3.912 4.256 0 6.234 1.267 7.057 2.851a4.3 4.3 0 0 1 .459 1.394h-4.557c-.016-.174-.079-.349-.253-.57-.349-.46-1.235-.76-2.817-.76-2.231 0-2.817.269-2.817.839 0 .634.744.776 3.228 1.046.966.079 2.501.237 3.023.3" fill="currentColor"></path><path fill-rule="evenodd" clip-rule="evenodd" d="M76.302 53.785c.838.665 1.313 1.79 1.313 3.422 0 1.33-.332 2.328-.965 3.025-.855.982-2.263 1.426-4.098 1.442-.57.016-5.444 0-5.444 0v3.485h-4.256V52.724h9.636c1.71 0 3.007.348 3.814 1.06m-3.149 4.388c.126-.222.19-.507.19-.903 0-.412-.08-.76-.222-.95-.269-.397-.775-.587-1.598-.587h-4.446v3.042h4.414c.886 0 1.409-.206 1.662-.602m20.025-4.181c.57.587.839 1.395.839 2.519 0 .966-.237 1.79-.633 2.345-.443.602-1.123 1.109-1.962 1.235l3.75 5.07h-4.715l-3.087-4.39h-3.845v4.388H79.3V52.724h9.89c1.962 0 3.244.475 3.987 1.267m-3.418 3.565c.111-.19.143-.444.143-.65 0-.237-.032-.491-.143-.65-.221-.411-.664-.522-1.329-.522h-4.89v2.265h4.97c.68 0 1.091-.127 1.25-.443" fill="currentColor"></path><path d="M109.625 65.159V62.07h-8.908v-1.616h8.544v-3.026h-8.544v-1.6h8.798v-3.104H96.539v12.435zm32.102-9.315v-3.12H126.9v3.12h5.238v9.315h4.336v-9.315zm5.687-3.12V65.16h-4.352V52.724zm23.823 0V65.16h-4.352V52.724zm35.203 0v7.636c0 3.358-3.039 4.974-7.643 4.974-4.303 0-7.391-1.6-7.391-5.37v-7.24h4.29v7.24c0 1.346 1.153 2.186 3.275 2.186 2.025 0 3.227-.872 3.227-2.17v-7.256zm17.086 8.57c0-2.17-1.377-3.311-4.588-3.66a109 109 0 0 0-3.023-.3c-2.485-.27-3.23-.412-3.23-1.046 0-.57.586-.84 2.819-.84 1.581 0 2.468.301 2.815.76.175.223.237.397.253.57h4.558a4.4 4.4 0 0 0-.459-1.393c-.823-1.584-2.8-2.851-7.057-2.851-4.795 0-7.423 1.694-7.423 3.912 0 2.139 1.49 3.39 5.508 3.755l.258.023.43.039 2.034.191c2.105.222 2.673.364 2.673 1.03 0 .618-.552.95-2.878.95-1.804 0-2.864-.269-3.246-.728a1.55 1.55 0 0 1-.298-.666h-4.559c.049.317.127.824.301 1.236.775 1.742 2.8 3.073 7.501 3.073 5.048 0 7.611-1.426 7.611-4.055" fill="currentColor"></path><path fill-rule="evenodd" clip-rule="evenodd" d="M112.864 69.92c-3.559 0-5.43 1.689-5.43 4.17 0 2.8 1.964 4.22 5.43 4.22 3.815 0 5.419-1.646 5.419-4.22 0-2.615-1.81-4.17-5.419-4.17m0 6.322c-2.026 0-2.613-.835-2.613-2.121 0-1.267.638-2.1 2.602-2.1 2.15 0 2.633.936 2.633 2.1 0 1.235-.586 2.12-2.622 2.12" fill="currentColor"></path><path d="M93.081 75.674c0-1.41-.894-2.152-2.982-2.378a70 70 0 0 0-1.964-.196c-1.615-.175-2.098-.267-2.098-.679 0-.37.38-.546 1.83-.546 1.029 0 1.605.196 1.83.494a.7.7 0 0 1 .165.371h2.962a2.8 2.8 0 0 0-.298-.906c-.535-1.03-1.82-1.853-4.587-1.853-3.116 0-4.823 1.101-4.823 2.543 0 1.39.967 2.203 3.579 2.44.36.03 1.224.113 1.769.165 1.368.144 1.738.237 1.738.669 0 .401-.36.618-1.872.618-1.172 0-1.861-.175-2.108-.474a1 1 0 0 1-.195-.432h-2.963c.031.206.083.535.196.803.504 1.132 1.82 1.997 4.875 1.997 3.28 0 4.946-.927 4.946-2.636" fill="currentColor"></path><path fill-rule="evenodd" clip-rule="evenodd" d="M72.542 75.903c0 .555-.154 1.101-.463 1.461-.473.577-1.357.824-2.499.824h-7.168v-8.082h6.973c1.11 0 1.82.268 2.21.67.35.35.505.813.505 1.338s-.124.957-.39 1.276a1.56 1.56 0 0 1-.978.526c.576.072 1.121.36 1.43.761.256.299.38.752.38 1.225m-3.466-2.832a.7.7 0 0 0 .165-.473c0-.196-.062-.36-.196-.474-.144-.134-.411-.185-.802-.185h-3.136v1.318h3.208c.35 0 .617-.052.761-.186m-.463 3.285c.484 0 .772-.062.936-.217.103-.103.144-.257.144-.453 0-.206-.051-.36-.175-.484-.154-.133-.421-.195-.874-.195h-3.538v1.349z" fill="currentColor"></path><path d="M82.222 76.18v2.008h-8.505v-8.082h8.433v2.018h-5.718v1.04h5.553v1.966h-5.553v1.05zm20.857-6.074v2.028h-3.414v6.054h-2.818v-6.054h-3.404v-2.028zm24.618 0v2.049h-5.481v1.143h5.224v2.028h-5.224v2.862h-2.767v-8.082zm13.925 2.028v-2.028h-9.636v2.028h3.404v6.054h2.818v-6.054zm10.525-2.028v8.082h-2.757v-2.934h-4.134v2.934H142.5v-8.082h2.756v2.945h4.134v-2.945zm10.133 8.082v-2.007h-5.79v-1.05h5.554v-1.967h-5.554v-1.04h5.718v-2.018h-8.433v8.082zm17.047-8.082h2.663l-2.951 8.082h-3.022s-1.617-4.828-1.627-4.963c-.009.135-1.636 4.963-1.636 4.963h-3.012l-3.023-8.082h2.991s1.751 5.086 1.751 5.21c0-.124 1.613-5.21 1.613-5.21h2.891s1.625 5.086 1.625 5.21c0-.124 1.737-5.21 1.737-5.21" fill="currentColor"></path><path fill-rule="evenodd" clip-rule="evenodd" d="M187.277 69.92c-3.558 0-5.429 1.689-5.429 4.17 0 2.8 1.963 4.22 5.429 4.22 3.817 0 5.419-1.646 5.419-4.22 0-2.615-1.81-4.17-5.419-4.17m0 6.322c-2.025 0-2.611-.835-2.611-2.121 0-1.267.637-2.1 2.601-2.1 2.151 0 2.632.936 2.632 2.1 0 1.235-.586 2.12-2.622 2.12m15.593-5.311c.368.38.543.906.543 1.637 0 .628-.153 1.163-.412 1.524-.287.39-.728.72-1.274.802l2.436 3.295H201.1l-2.006-2.852h-2.499v2.852h-2.745v-8.082h6.427c1.275 0 2.109.309 2.593.824m-2.222 2.316a.9.9 0 0 0 .092-.422c0-.154-.022-.319-.092-.422-.145-.268-.433-.34-.866-.34h-3.176v1.473h3.227c.444 0 .71-.083.815-.289" fill="currentColor"></path><path d="M212.749 78.188v-2.152h-4.916v-5.93h-2.786v8.082z" fill="currentColor"></path><path fill-rule="evenodd" clip-rule="evenodd" d="M223.674 73.998c0 1.256-.124 1.935-.492 2.574-.557 1.019-1.657 1.616-3.601 1.616h-5.718v-8.082h5.656c1.934 0 3.077.546 3.641 1.483.401.628.514 1.297.514 2.409m-4.618 2.203c.874 0 1.369-.206 1.668-.659.185-.278.236-.926.236-1.493-.01-.514-.072-1.06-.236-1.307-.32-.484-.802-.66-1.646-.66h-2.458v4.12z" fill="currentColor"></path><path d="M113.341 117.494h-4.262s-2.78 8.138-2.78 8.335c0-.197-2.6-8.335-2.6-8.335h-4.624s-2.583 8.138-2.583 8.335c0-.197-2.797-8.335-2.797-8.335h-4.789l4.838 12.931h4.82s2.601-7.726 2.617-7.94c.017.214 2.6 7.94 2.6 7.94h4.837zm5.825 12.931v-12.931h-4.525v12.931zm17.601-12.931v12.931h-4.41l-6.401-7.198v7.198h-4.245v-12.931h4.64l6.203 7.034v-7.034zm17.632 12.931v-12.931h-4.212v7.034l-6.203-7.034h-4.64v12.931h4.245v-7.198l6.401 7.198zm16.187-3.212v3.212h-13.609v-12.931h13.493v3.229h-9.149v1.664h8.885v3.146h-8.885v1.68z" fill="currentColor"></path><path fill-rule="evenodd" clip-rule="evenodd" d="M187.986 121.431c0-1.169-.28-2.009-.872-2.619-.774-.824-2.105-1.318-4.146-1.318h-10.284v12.931h4.394v-4.563h3.999l3.208 4.563h4.903l-3.9-5.271c.872-.132 1.579-.659 2.042-1.285.408-.576.656-1.433.656-2.438m-4.279.412c0 .214-.032.478-.148.675-.164.33-.591.461-1.299.461h-5.166v-2.355h5.083c.691 0 1.154.115 1.382.544.116.164.148.428.148.675" fill="currentColor"></path><path d="m100.207 94.68-1.784-5.498-1.785 5.498h-5.775l4.672 3.398-1.784 5.499 4.672-3.398 4.671 3.398-1.784-5.499 4.672-3.398zm18.811-5.502 1.821 5.498h5.893l-4.767 3.399 1.821 5.498-4.768-3.398-4.767 3.398 1.821-5.498-4.767-3.399h5.892zm22.259 5.498-1.821-5.498-1.821 5.498h-5.893l4.768 3.399-1.821 5.498 4.767-3.398 4.767 3.398-1.821-5.498 4.767-3.399zm18.618-5.498 1.821 5.498h5.893l-4.767 3.399 1.821 5.498-4.768-3.398-4.767 3.398 1.821-5.498-4.767-3.399h5.892zm22.392 5.498-1.786-5.498-1.786 5.498h-5.774l4.672 3.399-1.783 5.498 4.671-3.398 4.671 3.398-1.783-5.498 4.672-3.399zm74.924-64.462c1.708-4.347.965-9.346-.608-13.55-1.656-4.423-4.539-8.835-8.848-11.161-.215 4.662 1.208 9.267 2.762 13.42 1.399 3.735 3.112 7.714 5.944 10.803a85 85 0 0 1 1.003 6.997 17.7 17.7 0 0 0-4.357-6.488c-2.444-2.317-6.083-4.104-9.496-3.047 1.001 3.777 3.278 7.399 5.978 9.94 2.125 1.999 4.93 4.56 8.232 4.662.138 3.42.06 6.808-.223 10.15-.465-2.446-1.463-4.749-2.907-6.464-1.982-2.357-4.921-5.236-8.673-4.754.204 3.824 1.729 7.741 3.851 10.685 1.684 2.34 3.91 5.321 7.07 6.091a80 80 0 0 1-2.105 9.672c-.008-2.42-.541-4.794-1.601-6.699-1.492-2.686-3.818-6.036-7.575-6.298-.552 3.752.196 7.852 1.702 11.114 1.202 2.607 2.808 5.931 5.731 7.307a80 80 0 0 1-4.349 9.896c.587-2.75.562-5.648-.129-8.255-.954-3.594-3.321-7.37-7.124-8.465-1.344 3.968-1.159 8.396-.376 12.428.642 3.32 1.904 7.22 4.733 9.377a80 80 0 0 1-6.132 8.59c1.202-2.677 1.797-5.606 1.477-8.287-.466-3.905-1.56-8.082-5.543-10.163-2.262 3.904-2.786 8.283-2.977 12.61-.156 3.496.347 7.81 2.775 10.655a81 81 0 0 1-8.622 7.773c1.985-2.55 3.375-5.542 3.669-8.501.416-4.18.215-8.783-3.494-11.852-3.168 3.315-5.061 8.195-5.986 12.435-.82 3.748-1.676 8.184.274 11.873a83 83 0 0 1-12.511 6.721c3.109-2.218 5.653-5.261 6.866-8.403 1.59-4.118 2.571-9.025-.522-13.149-4.146 2.659-7.193 7.195-9.595 11.332-2.06 3.55-4.193 8.45-3.133 12.678a88 88 0 0 1-7.525 2.182l.153.632a88 88 0 0 0 7.552-2.19c1.721 5.09 7.358 6.772 11.916 7.514 6.495 1.058 14.23-.991 19.775-5.121-2.929-4.14-8.899-4.56-13.401-4.877l-.059-.004a48.2 48.2 0 0 0-15.227 1.407 84 84 0 0 0 16.036-8.158l.068.108c2.708 4.405 8.151 4.577 12.422 4.299 5.795-.378 12.484-3.904 16.353-8.779-3.641-3.198-9.017-2.304-13.185-1.61l-.022.003c-4.65.774-9.73 2.462-13.995 5.061q.608-.48 1.189-1.013a82 82 0 0 0 11.443-9.882l.145.142c3.378 3.374 8.28 2.484 12.11 1.38 5.137-1.481 10.461-5.948 13.014-11.077-3.956-2.218-8.684-.39-12.361 1.056-4.042 1.588-8.315 4.13-11.601 7.371q.51-.643.971-1.339a81.3 81.3 0 0 0 8.215-11.044l.105.065.027.017c3.816 2.458 8.141.673 11.567-1.083 4.65-2.382 8.388-7.618 10.002-12.768-4.126-1.322-8.2 1.274-11.368 3.33-3.469 2.25-6.982 5.46-9.391 9.14q.267-.545.497-1.113a81 81 0 0 0 5.874-12.695l.083.028.013.005c3.472 1.316 7.337-.737 9.857-2.99 3.501-3.13 5.973-7.946 6.551-12.65-3.62-.469-7.033 2.336-9.364 4.727-2.684 2.755-5.096 6.01-6.578 9.628q.165-.593.282-1.201a81 81 0 0 0 3.042-12.767l.102.014c3.657.593 7.041-2.194 9.063-4.898 2.845-3.806 4.311-9.073 3.943-13.847-3.655.257-6.441 3.74-8.246 6.557-2.092 3.263-3.827 6.957-4.585 10.821q.035-.464.043-.931a83 83 0 0 0 .573-13.56c3.735-.13 6.502-3.602 7.928-6.681 2.036-4.404 2.364-9.971 1.006-14.663-3.558 1-5.543 5.085-6.713 8.23-1.35 3.626-2.291 7.581-2.299 11.513a86 86 0 0 0-1.181-9.962" fill="currentColor"></path></svg>