<svg xmlns="http://www.w3.org/2000/svg" width="83" height="67" viewBox="0 0 83 67" fill="none"><path d="M27.499 23.052v-2.65h-1.476v2.518c0 .45-.42.753-1.124.753-.738 0-1.14-.291-1.14-.759v-2.511h-1.493v2.511c0 1.308 1.074 1.863 2.572 1.863 1.603 0 2.66-.56 2.66-1.725m4.983 1.665v-1.149h-2.633v-3.165h-1.492v4.314zm4.435-3.231v-1.083h-5.162v1.083h1.823v3.231h1.51v-3.231zm1.982 3.231v-4.314h-1.515v4.314zm6.95 0v-4.314h-1.867L42.8 22.99l-1.123-2.588H39.75v4.314h1.405v-2.33l1.013 2.33h1.256l1.025-2.33v2.33zm2.34-.797h2.335l.38.797h1.592l-2.181-4.314h-1.78l-2.307 4.314h1.559zm1.867-.967h-1.383l.546-1.039.165-.396.154.39zm7.124-1.467v-1.083h-5.161v1.083h1.823v3.231h1.51v-3.231zm5.021 3.231v-1.072h-3.101v-.56h2.974v-1.05h-2.974v-.555h3.062v-1.077h-4.517v4.314zm-28.67 2.292h-1.427s-.93 2.715-.93 2.78c0-.065-.871-2.78-.871-2.78h-1.548s-.865 2.715-.865 2.78c0-.065-.936-2.78-.936-2.78H25.35l1.62 4.314h1.613s.87-2.578.876-2.649c.006.071.87 2.649.87 2.649h1.62zm1.954 4.314v-4.314h-1.515v4.314zm5.886 0v-4.314h-1.41v2.346l-2.076-2.346H36.33v4.314h1.421V28.92l2.143 2.402zm5.907 0v-4.314h-1.41v2.346L43.79 27.01h-1.554v4.314h1.422V28.92l2.142 2.402zm5.421 0V30.25h-3.101v-.56h2.974v-1.05h-2.974v-.555h3.063v-1.077h-4.517v4.314zm5.816-3.001c0-.39-.094-.67-.293-.874-.258-.274-.704-.44-1.388-.44h-3.442v4.315h1.47V29.8h1.34l1.074 1.522h1.641l-1.305-1.759c.291-.044.529-.22.682-.428.138-.193.22-.479.22-.814m-1.432.138a.46.46 0 0 1-.05.225c-.055.11-.199.154-.435.154h-1.73v-.786h1.702c.232 0 .386.038.462.181.04.055.05.143.05.226m-28.957 7.109V33.46h-.516v2.075c0 .49-.461.768-1.127.768-.786 0-1.173-.3-1.173-.772V33.46h-.52v2.054c0 .863.674 1.245 1.672 1.245 1.032 0 1.664-.407 1.664-1.19m3.704 1.149v-.477h-2.25v-2.78h-.52v3.257zm2.957-2.784v-.474h-3.47v.474h1.473v2.784h.524v-2.785zm3.697.448a.97.97 0 0 0-.137-.54c-.154-.228-.45-.382-.94-.382h-2.113v3.258h.512v-1.374h1.489l.91 1.374h.6l-.986-1.46a.72.72 0 0 0 .549-.353c.075-.125.116-.308.116-.523m-.516.041c0 .091-.02.204-.058.278-.066.12-.22.183-.47.187h-1.63v-.963h1.535c.312 0 .478.075.565.216a.6.6 0 0 1 .059.282m1.994 1.49h2.033l.416.805h.558L41.31 33.46h-.61l-1.71 3.258h.545zm1.817-.461h-1.593l.661-1.25.146-.302.146.303zm6.461.954c.13-.15.188-.36.188-.589 0-.216-.063-.432-.192-.564a.97.97 0 0 0-.566-.25.5.5 0 0 0 .308-.19c.113-.129.179-.336.179-.544 0-.22-.066-.419-.208-.556-.154-.153-.416-.253-.782-.253H44.97v3.258h2.358c.441 0 .749-.113.911-.312m-.62-2.033a.48.48 0 0 1-.124.348c-.08.088-.212.125-.354.125h-1.664v-.938h1.568c.192 0 .337.037.437.129a.46.46 0 0 1 .137.336m.167 1.718q-.154.174-.545.174h-1.764v-.967h1.776c.242 0 .408.05.508.145.091.088.129.2.129.328 0 .133-.03.245-.104.32m4.417.627v-.478h-2.537v-.93h2.437v-.472h-2.437v-.905h2.508v-.473h-3.016v3.258zm4.065-.962c0-.532-.353-.806-1.223-.905-.146-.02-.462-.054-.632-.075-.807-.095-1.053-.203-1.053-.481 0-.27.27-.423 1.086-.423.632 0 .957.124 1.12.348a.5.5 0 0 1 .082.195h.557a1.2 1.2 0 0 0-.112-.336c-.224-.386-.686-.664-1.647-.664-1.148-.004-1.622.411-1.622.925 0 .515.37.776 1.33.889l.608.07c.745.091.978.203.978.515 0 .286-.267.494-1.12.494-.698 0-1.073-.125-1.222-.366a.5.5 0 0 1-.08-.24h-.548c.012.149.054.31.128.44.217.394.724.622 1.706.622 1.173 0 1.664-.378 1.664-1.008m3.728-1.823v-.473h-3.469v.473H58v2.785h.524v-2.785zm-36.679 5.616c0-.332-.067-.556-.18-.726-.157-.245-.465-.374-1.002-.374h-2.063v3.258h.516v-1.063h1.527c.503-.004.848-.12 1.031-.386.117-.161.17-.394.17-.71m-.524 0c0 .166-.017.29-.071.373-.096.154-.291.25-.695.25h-1.439v-1.258h1.456c.378 0 .574.087.678.257.05.075.07.212.07.378m4.289 2.159v-.477h-2.537v-.93h2.437v-.473h-2.437v-.905h2.508v-.473h-3.016v3.258zm3.968-2.337a.97.97 0 0 0-.137-.539c-.154-.228-.45-.382-.94-.382h-2.114v3.258h.512v-1.374h1.49l.91 1.374h.6l-.987-1.461a.72.72 0 0 0 .55-.353c.074-.124.116-.307.116-.523m-.516.042a.7.7 0 0 1-.058.278c-.067.12-.22.183-.47.187h-1.63v-.963h1.534c.312 0 .478.075.566.216a.6.6 0 0 1 .058.282m4.373-.49v-.473h-2.903v3.258h.516V40.32h2.28v-.486h-2.28v-.913zm2.365-.531c-.695 0-1.173.17-1.515.527-.286.278-.411.664-.411 1.15 0 .53.162.93.462 1.199.32.32.81.485 1.464.485.673 0 1.198-.166 1.51-.502.27-.274.411-.664.411-1.187 0-.506-.12-.892-.407-1.166-.329-.34-.82-.506-1.514-.506m0 2.897c-.458 0-.782-.1-1.028-.3-.25-.202-.37-.514-.37-.912 0-.374.104-.685.304-.872.228-.215.578-.344 1.09-.344.528 0 .856.125 1.102.34.208.183.3.507.3.872 0 .37-.096.685-.309.875-.245.229-.59.34-1.09.34M43.1 39.37a.97.97 0 0 0-.137-.539c-.154-.228-.449-.382-.94-.382H39.91v3.258h.512v-1.374h1.489l.91 1.374h.6l-.986-1.461a.72.72 0 0 0 .549-.353c.075-.124.116-.307.116-.523m-.515.042a.7.7 0 0 1-.059.278c-.066.12-.22.183-.47.187h-1.63v-.963h1.535c.312 0 .478.075.566.216a.6.6 0 0 1 .058.282m5.486 2.295v-3.258h-.674l-1.343 2.681-1.319-2.68h-.686v3.257h.495V39.2l1.231 2.507h.54l1.261-2.507v2.507zm1.465-.805h2.034l.416.805h.557l-1.656-3.258h-.611l-1.71 3.258h.545zm1.817-.46H49.76l.662-1.25.145-.303.146.303zm4.93 1.265v-3.258h-.495v2.532l-2.162-2.532h-.587v3.258h.503v-2.548l2.18 2.548zm4.491-1.216h-.54a.72.72 0 0 1-.18.41c-.224.262-.582.374-1.13.374-.462 0-.958-.128-1.195-.465-.124-.157-.204-.39-.204-.738 0-.311.055-.544.175-.702.2-.319.62-.485 1.211-.485.574 0 .936.158 1.127.378q.161.173.19.415h.542a1.25 1.25 0 0 0-.2-.581c-.266-.395-.757-.706-1.656-.706-.856 0-1.368.274-1.651.685q-.275.355-.275.992c0 .473.113.821.308 1.066.284.386.828.618 1.652.618.845 0 1.348-.253 1.598-.655a1.3 1.3 0 0 0 .228-.606m3.725 1.216v-.477H61.96v-.93h2.438v-.473H61.96v-.905h2.508v-.473h-3.016v3.258zm-38.041 3.235.622 1.91h2.013l-1.629 1.181.622 1.91-1.628-1.18-1.63 1.18.623-1.91-1.629-1.18h2.013zm7.18 0 .635 1.91h2.054l-1.662 1.181.635 1.91-1.662-1.18-1.662 1.18.635-1.91-1.662-1.18h2.055zm7.129 0 .635 1.91h2.054l-1.662 1.181.635 1.91-1.662-1.18-1.662 1.18.635-1.91-1.662-1.18h2.054zm7.117 0 .635 1.91h2.054l-1.662 1.181.635 1.91-1.662-1.18-1.662 1.18.635-1.91-1.662-1.18h2.055zm7.185 0 .622 1.91h2.013l-1.629 1.181.622 1.91-1.628-1.18-1.629 1.18.622-1.91-1.628-1.18h2.013zM29.953 12.718l.47 1.444h1.523l-1.232.893.47 1.444-1.23-.893-1.232.893.47-1.444-1.231-.893h1.522zm5.427-.002.48 1.444h1.554l-1.257.893.48 1.444-1.256-.893-1.257.893.48-1.444-1.256-.893H34.9zm5.388 0 .48 1.444H42.8l-1.257.893.48 1.444-1.256-.893-1.257.893.48-1.444-1.257-.893h1.553zm5.386 0 .48 1.444h1.553l-1.256.893.48 1.444-1.257-.893-1.256.893.48-1.444-1.257-.893h1.553zm5.428 0 .47 1.444h1.523l-1.232.893.47 1.444-1.23-.893-1.232.893.47-1.444-1.231-.893h1.522z" fill="currentColor"></path><path fill-rule="evenodd" clip-rule="evenodd" d="M8.267 38.711c-2.076-12.956 3.982-25.775 16.11-31.28l.112.245C12.483 13.126 6.475 25.82 8.534 38.67c2.276 14.214 13.773 22.74 27.85 23.15l-.009.27c-14.186-.415-25.807-9.017-28.108-23.38" fill="currentColor"></path><path d="M21.748 10.737c-2.241.05-4.864 1.311-6.412 3.143 1.241 1.15 3.238.725 4.676.49 2.05-.336 4.232-.986 6.168-1.907-.796-1.69-2.94-1.76-4.432-1.726" fill="currentColor"></path><path d="M19.985 7.979a40 40 0 0 1-4.631 5.919c-1.44-1.35-.571-3.594.017-4.99 1.065-2.53 3.618-4.711 6.288-5.827.733 1.663-.859 3.631-1.674 4.898m-4.725 8.544c-2.098.744-3.901 2.84-4.807 4.943 1.51.7 3.225-.311 4.48-.984 1.723-.924 3.481-2.2 4.864-3.675-1.25-1.316-3.147-.776-4.536-.284" fill="currentColor"></path><path d="M12.718 14.461a32 32 0 0 1-2.241 7.015c-1.766-.83-1.699-3.21-1.623-4.724.13-2.585 1.578-5.532 3.596-7.405 1.236 1.321.56 3.615.268 5.114m-1.492 9.531c-1.749 1.377-2.809 3.927-3.054 6.205 1.654.19 2.976-1.313 3.96-2.343 1.34-1.403 2.608-3.163 3.413-5.004-1.577-.858-3.18.246-4.319 1.142" fill="currentColor"></path><path d="M8.193 22.83a29 29 0 0 1 0 7.369c-1.923-.236-2.562-2.54-2.938-3.986-.651-2.495-.215-5.719 1.053-8.145 1.584.875 1.686 3.243 1.885 4.762m1.662 9.314c-1.384 2.023-1.87 5.192-1.248 7.739 1.828-.432 2.735-2.497 3.463-3.956.967-1.939 1.784-4.2 2.077-6.42-1.983-.411-3.38 1.305-4.292 2.637" fill="currentColor"></path><path d="M6.218 31.94a37 37 0 0 1 2.411 7.936c-2.097.45-3.606-1.747-4.483-3.204-1.561-2.593-2.016-6.188-1.444-9.29 1.92.384 2.859 3.04 3.516 4.557m4.601 9.004c-.744 2.453-.227 5.788 1.277 8.094 1.653-1.074 1.882-3.437 2.116-5.131.31-2.237.455-4.714.071-7.032-2.114.269-2.968 2.43-3.464 4.069" fill="currentColor"></path><path d="M7.146 41.994a43.5 43.5 0 0 1 4.978 7.028c-1.914 1.192-4.16-.436-5.522-1.589-2.417-2.044-3.986-5.519-4.358-8.795 2.011-.27 3.783 2.075 4.902 3.356m7.574 7.299c.16 2.855 2.023 5.852 4.504 7.557 1.198-1.636.447-4.144.039-5.894-.55-2.357-1.312-4.811-2.444-6.989-1.974 1.04-2.204 3.445-2.099 5.326" fill="currentColor"></path><path d="M11.38 51.705a69 69 0 0 1 7.86 5.12c-1.492 1.96-4.475 1.178-6.324.548-3.259-1.11-6.164-4.038-7.682-7.29 1.924-.99 4.558.741 6.146 1.622m10.992 4.564c1.614 2.937 5.29 4.854 8.752 5.315.373-2.136-1.943-4.25-3.205-5.633-1.797-1.97-3.67-4.013-5.769-5.716-1.572 1.822-.741 4.28.222 6.034" fill="currentColor"></path><path d="M20.07 59.992c3.667.38 7.397.928 11.062 1.56-.35 2.694-4.636 3.129-6.581 3.288-3.99.326-8.428-1.274-11.518-3.967 1.535-1.802 5.083-1.083 7.037-.88M27.133 5.17c-2.462.701-5.344 2.03-6.768 4.485 2.585-.281 5.125-1.199 7.609-1.898 2.782-.783 5.711-1.369 8.405-2.45-2.95-1.177-6.428-.939-9.246-.137" fill="currentColor"></path><path fill-rule="evenodd" clip-rule="evenodd" d="M74.771 38.669c2.058-12.85-3.95-25.543-15.955-30.993l.112-.245c12.128 5.505 18.186 18.324 16.11 31.28-2.3 14.363-13.922 22.965-28.108 23.38l-.008-.27c14.077-.411 25.571-8.937 27.85-23.152" fill="currentColor"></path><path d="M61.55 10.737c2.241.05 4.864 1.311 6.413 3.143-1.242 1.15-3.24.725-4.676.49-2.051-.336-4.233-.986-6.168-1.907.796-1.69 2.94-1.76 4.432-1.726" fill="currentColor"></path><path d="M63.315 7.978a40.3 40.3 0 0 0 4.63 5.92c1.442-1.35.572-3.595-.016-4.99-1.064-2.53-3.618-4.712-6.288-5.828-.733 1.663.86 3.632 1.674 4.898m4.722 8.545c2.098.744 3.901 2.84 4.807 4.943-1.51.7-3.225-.311-4.48-.984-1.723-.924-3.481-2.2-4.864-3.675 1.25-1.316 3.147-.776 4.537-.284" fill="currentColor"></path><path d="M70.586 14.46a32 32 0 0 0 2.24 7.015c1.766-.83 1.7-3.21 1.623-4.724-.129-2.585-1.578-5.532-3.596-7.405-1.235 1.322-.56 3.616-.267 5.115m1.494 9.531c1.749 1.377 2.809 3.927 3.054 6.205-1.653.19-2.976-1.313-3.96-2.343-1.34-1.403-2.608-3.163-3.412-5.004 1.576-.858 3.18.246 4.318 1.142" fill="currentColor"></path><path d="M75.11 22.83a29 29 0 0 0-.001 7.369c1.923-.236 2.562-2.54 2.938-3.986.651-2.495.214-5.719-1.053-8.145-1.584.875-1.686 3.243-1.884 4.762m-1.66 9.314c1.384 2.022 1.87 5.191 1.249 7.738-1.829-.431-2.735-2.497-3.463-3.956-.967-1.938-1.785-4.2-2.078-6.419 1.983-.412 3.382 1.304 4.293 2.637" fill="currentColor"></path><path d="M77.081 31.94a37 37 0 0 0-2.411 7.936c2.096.45 3.605-1.747 4.483-3.204 1.56-2.593 2.016-6.188 1.444-9.29-1.92.384-2.86 3.04-3.516 4.557m-4.601 9.004c.743 2.453.227 5.788-1.278 8.094-1.652-1.074-1.882-3.437-2.116-5.131-.308-2.237-.454-4.714-.07-7.032 2.114.269 2.967 2.43 3.464 4.069" fill="currentColor"></path><path d="M76.16 41.993a43.5 43.5 0 0 0-4.976 7.029c1.913 1.192 4.16-.437 5.522-1.59 2.416-2.044 3.986-5.519 4.358-8.794-2.011-.27-3.784 2.074-4.903 3.355m-7.575 7.3c-.16 2.855-2.022 5.852-4.503 7.557-1.2-1.636-.447-4.144-.04-5.894.55-2.357 1.313-4.811 2.444-6.989 1.975 1.04 2.204 3.445 2.099 5.326" fill="currentColor"></path><path d="M71.923 51.705a69 69 0 0 0-7.86 5.12c1.492 1.96 4.475 1.178 6.323.548 3.26-1.11 6.165-4.038 7.682-7.29-1.924-.99-4.558.741-6.145 1.622m-10.998 4.564c-1.613 2.937-5.29 4.854-8.752 5.315-.373-2.136 1.943-4.25 3.206-5.633 1.796-1.97 3.668-4.013 5.768-5.716 1.573 1.822.74 4.28-.222 6.034" fill="currentColor"></path><path d="M63.232 59.992c-3.667.38-7.396.928-11.062 1.56.35 2.694 4.636 3.129 6.581 3.288 3.99.326 8.428-1.274 11.517-3.967-1.534-1.802-5.082-1.083-7.036-.88M56.168 5.17c2.462.701 5.345 2.03 6.767 4.485-2.583-.281-5.123-1.199-7.607-1.898-2.783-.783-5.712-1.369-8.406-2.45 2.95-1.177 6.428-.939 9.246-.137M43.25 3.898l-1.262-2.78-1.24 2.728-2.883-1.783 1.853 3.884h4.606l1.786-3.884zm1.048 2.654h-4.614v.68h4.614zm-1.977 52.551.744 2.282h2.406l-1.947 1.411.744 2.283-1.947-1.41-1.946 1.41.743-2.283-1.946-1.41h2.406z" fill="currentColor"></path></svg>