<svg xmlns="http://www.w3.org/2000/svg" width="212" height="155" viewBox="0 0 212 155" fill="none"><path d="M93.122 1.5v46.84H68.524c-4.894 0-8.042.72-10.014 2.5-1.936 1.748-3.099 4.855-3.099 10.613v6.514H95.48v85.494H1.5V61.925c0-20.093 5.869-35.28 17.05-45.423C29.705 6.383 45.914 1.5 66.167 1.5zm114.55 0v46.84h-24.599c-4.9 0-7.905.724-9.751 2.475-1.83 1.737-2.89 4.843-2.89 10.638v6.514H210.5v85.494h-94.451V61.925c0-20.102 5.993-35.29 17.292-45.428C144.612 6.383 160.935 1.5 181.188 1.5z" stroke="currentColor" stroke-width="3"></path></svg>