<svg xmlns="http://www.w3.org/2000/svg" width="45" height="43" viewBox="0 0 45 43" fill="none"><path d="M15.051 34.624c0 .177-.208.32-.471.32-.3.026-.508-.116-.508-.32 0-.178.208-.32.471-.32.273-.027.508.115.508.32m-2.821-.4c-.064.177.118.382.39.435.236.089.508 0 .563-.178s-.118-.382-.39-.462c-.236-.062-.5.027-.563.204m4.01-.152c-.263.063-.445.231-.417.436.027.178.263.293.535.231.263-.062.444-.231.417-.409-.027-.169-.272-.284-.535-.258M22.21 0C9.626 0 0 9.363 0 21.695a22.33 22.33 0 0 0 15.378 21.269c1.161.204 1.57-.498 1.57-1.076 0-.551-.028-3.592-.028-5.46 0 0-6.35 1.334-7.684-2.65 0 0-1.034-2.587-2.522-3.253 0 0-2.078-1.396.145-1.37 0 0 2.259.178 3.502 2.294 1.987 3.432 5.316 2.445 6.614 1.859.208-1.423.798-2.41 1.451-2.997-5.071-.551-10.188-1.271-10.188-9.825 0-2.445.69-3.672 2.141-5.237-.236-.578-1.007-2.96.236-6.037 1.896-.578 6.26 2.4 6.26 2.4a21.7 21.7 0 0 1 5.698-.755c1.932 0 3.883.257 5.697.755 0 0 4.364-2.987 6.26-2.4 1.243 3.085.472 5.459.236 6.037 1.452 1.574 2.34 2.8 2.34 5.237 0 8.58-5.343 9.265-10.414 9.825.834.703 1.542 2.036 1.542 4.126 0 2.996-.027 6.704-.027 7.433 0 .578.417 1.28 1.57 1.076C38.848 39.994 45 31.556 45 21.696 45 9.362 34.793 0 22.21 0M8.819 30.667c-.118.089-.091.293.063.462.145.142.354.205.472.09.118-.09.09-.294-.064-.463-.145-.143-.354-.205-.471-.09m-.98-.72c-.064.115.027.258.208.346.146.09.327.063.39-.062.064-.116-.027-.258-.208-.347-.182-.053-.327-.026-.39.063m2.94 3.165c-.146.116-.091.382.117.551.209.205.472.231.59.09.118-.116.063-.383-.118-.552-.2-.205-.472-.231-.59-.089m-1.035-1.307c-.145.089-.145.32 0 .525.145.204.39.293.508.204.145-.116.145-.347 0-.551-.127-.205-.363-.294-.508-.178" fill="currentColor"></path></svg>