<svg xmlns="http://www.w3.org/2000/svg" width="172" height="42" viewBox="0 0 172 42" fill="none"><path d="M51.606 30.198h12.028v-3.707H55.88V12.526h-4.276zm19.154-2.472c-1.714 0-2.608-1.532-2.608-3.83 0-2.3.894-3.856 2.609-3.856s2.633 1.557 2.633 3.855-.918 3.831-2.633 3.831m.025 2.867c3.985 0 6.594-2.892 6.594-6.698s-2.609-6.698-6.594-6.698c-3.961 0-6.618 2.892-6.618 6.698s2.657 6.698 6.618 6.698m13.491 3.98c1.835 0 3.454-.42 4.54-1.409.99-.915 1.643-2.299 1.643-4.202V17.544h-3.768v1.359h-.048c-.725-1.063-1.836-1.73-3.478-1.73-3.068 0-5.193 2.62-5.193 6.327 0 3.88 2.584 6.006 5.362 6.006 1.497 0 2.44-.618 3.164-1.458h.097v1.26c0 1.533-.701 2.422-2.368 2.422-1.304 0-1.956-.568-2.173-1.235h-3.817c.387 2.644 2.633 4.078 6.039 4.078m-.024-8.058c-1.474 0-2.44-1.235-2.44-3.139 0-1.927.966-3.163 2.44-3.163 1.642 0 2.511 1.433 2.511 3.139 0 1.78-.796 3.163-2.511 3.163m13.954 1.211c-1.715 0-2.608-1.532-2.608-3.83 0-2.3.893-3.856 2.608-3.856s2.633 1.557 2.633 3.855-.918 3.831-2.633 3.831m.024 2.867c3.985 0 6.594-2.892 6.594-6.698s-2.609-6.698-6.594-6.698c-3.96 0-6.618 2.892-6.618 6.698s2.657 6.698 6.618 6.698m7.745-.395h3.937V17.544h-3.937zm0-14.41h3.937v-3.262h-3.937zm5.644 18.587h3.937v-5.487h.048c.773 1.063 1.909 1.706 3.503 1.706 3.236 0 5.386-2.62 5.386-6.723 0-3.806-2.005-6.698-5.29-6.698-1.69 0-2.898.766-3.743 1.903h-.073v-1.532h-3.768zm6.473-6.896c-1.69 0-2.657-1.408-2.657-3.46s.87-3.608 2.585-3.608c1.691 0 2.488 1.433 2.488 3.608 0 2.15-.918 3.46-2.416 3.46m12.811 3.115c3.236 0 5.628-1.434 5.628-4.202 0-3.238-2.561-3.806-4.734-4.177-1.57-.297-2.971-.42-2.971-1.31 0-.791.748-1.162 1.715-1.162 1.086 0 1.835.346 1.98 1.483h3.623c-.193-2.496-2.077-4.053-5.579-4.053-2.923 0-5.338 1.384-5.338 4.053 0 2.966 2.294 3.56 4.444 3.93 1.642.297 3.14.42 3.14 1.557 0 .816-.749 1.26-1.932 1.26-1.305 0-2.126-.617-2.271-1.878h-3.719c.12 2.793 2.391 4.499 6.014 4.499m10.975-.026c1.715 0 2.802-.692 3.695-1.928h.073v1.558h3.768V17.543h-3.937v7.069c0 1.507-.821 2.545-2.174 2.545-1.256 0-1.86-.766-1.86-2.15v-7.464h-3.913v8.305c0 2.817 1.498 4.72 4.348 4.72m9.249-.37h3.937v-7.093c0-1.508.725-2.57 1.956-2.57 1.184 0 1.739.79 1.739 2.15v7.513h3.937v-7.093c0-1.508.701-2.57 1.957-2.57 1.183 0 1.739.79 1.739 2.15v7.513h3.937v-8.23c0-2.843-1.401-4.795-4.203-4.795-1.594 0-2.922.692-3.888 2.224h-.049c-.628-1.36-1.86-2.224-3.478-2.224-1.787 0-2.971.865-3.744 2.175h-.072v-1.804h-3.768z" fill="currentColor"></path><path fill-rule="evenodd" clip-rule="evenodd" d="M20.23 41.526c11.117 0 20.128-9.221 20.128-20.597C40.358 9.555 31.347.334 20.23.334 9.114.333.103 9.554.103 20.93S9.114 41.526 20.23 41.526m3.107-25.28c1.716-1.755 1.716-4.602 0-6.358a4.323 4.323 0 0 0-6.213 0c-1.716 1.756-1.716 4.603 0 6.359l3.106 3.178zm1.47 7.863a4.323 4.323 0 0 0 6.213 0c1.716-1.756 1.716-4.603 0-6.359a4.323 4.323 0 0 0-6.213 0L21.7 20.93zm-1.47 7.862c1.716-1.756 1.716-4.603 0-6.358l-3.107-3.18-3.106 3.18c-1.716 1.755-1.716 4.602 0 6.358a4.323 4.323 0 0 0 6.213 0M9.441 24.109c-1.716-1.756-1.716-4.603 0-6.359a4.323 4.323 0 0 1 6.213 0l3.107 3.18-3.107 3.179a4.323 4.323 0 0 1-6.213 0" fill="currentColor"></path></svg>