<svg xmlns="http://www.w3.org/2000/svg" width="109" height="42" viewBox="0 0 109 42" fill="none"><g clip-path="url(#a)" fill="currentColor"><path d="M49.93 37.03h2.837V26.19h-2.836zm0-12.53h2.837v-2.577h-2.836zm4.665 16.078h2.836v-4.775h.042c.605.93 1.585 1.543 3.086 1.543 2.753 0 4.63-2.219 4.63-5.726 0-3.38-1.814-5.725-4.65-5.725-1.46 0-2.461.697-3.15 1.647h-.062V26.19h-2.732zm5.36-5.62c-1.69 0-2.587-1.288-2.587-3.253 0-1.944.71-3.486 2.482-3.486 1.752 0 2.461 1.436 2.461 3.486 0 2.049-.917 3.253-2.356 3.253m10.892 2.388c2.67 0 4.505-1.31 4.505-3.486 0-2.536-1.981-3.043-3.775-3.423-1.522-.317-2.94-.402-2.94-1.331 0-.782.73-1.204 1.835-1.204 1.21 0 1.94.422 2.064 1.584h2.566c-.209-2.176-1.773-3.591-4.589-3.591-2.44 0-4.358 1.12-4.358 3.464 0 2.367 1.877 2.895 3.795 3.275 1.46.296 2.816.402 2.816 1.437 0 .76-.71 1.246-1.96 1.246-1.273 0-2.149-.549-2.336-1.795h-2.628c.167 2.303 1.898 3.824 5.005 3.824m15.273-.317V26.19h-2.836v6.254c0 1.437-.813 2.451-2.148 2.451-1.21 0-1.773-.697-1.773-1.965v-6.74h-2.815v7.226c0 2.366 1.335 3.909 3.712 3.909 1.502 0 2.336-.57 3.066-1.564h.063v1.268zm1.835 0h2.837v-6.296c0-1.437.771-2.367 1.918-2.367 1.043 0 1.648.634 1.648 1.86v6.803h2.836v-6.296c0-1.437.73-2.367 1.919-2.367 1.043 0 1.647.634 1.647 1.86v6.803h2.837v-7.29c0-2.366-1.272-3.844-3.525-3.844-1.355 0-2.482.718-3.212 1.901h-.041c-.522-1.14-1.606-1.901-2.962-1.901-1.48 0-2.523.76-3.107 1.753h-.063V26.19h-2.732zM49.973 18.465h2.836V3.358h-2.836zm9.771.317c3.316 0 5.589-2.493 5.589-5.725 0-3.233-2.273-5.726-5.59-5.726-3.315 0-5.589 2.493-5.589 5.726s2.274 5.725 5.59 5.725m0-2.197c-1.752 0-2.712-1.416-2.712-3.528s.96-3.55 2.712-3.55c1.73 0 2.71 1.437 2.71 3.55s-.98 3.528-2.71 3.528m11.622 5.578c1.585 0 2.961-.38 3.858-1.226.792-.74 1.272-1.774 1.272-3.296V7.627h-2.732v1.14h-.042c-.646-.908-1.626-1.436-2.961-1.436-2.711 0-4.63 2.07-4.63 5.303 0 3.275 2.336 5.176 4.713 5.176 1.356 0 2.17-.549 2.795-1.267h.063v1.183c0 1.479-.772 2.26-2.378 2.26-1.314 0-1.919-.528-2.148-1.204H66.36c.292 2.113 2.086 3.38 5.006 3.38m-.042-6.655c-1.46 0-2.42-1.078-2.42-2.916 0-1.817.96-2.958 2.4-2.958 1.71 0 2.543 1.352 2.543 2.937 0 1.605-.73 2.937-2.523 2.937m12.066 3.275c3.316 0 5.59-2.493 5.59-5.725 0-3.233-2.274-5.726-5.59-5.726s-5.59 2.493-5.59 5.726 2.274 5.725 5.59 5.725m0-2.197c-1.752 0-2.711-1.416-2.711-3.528s.96-3.55 2.711-3.55c1.731 0 2.711 1.437 2.711 3.55s-.98 3.528-2.71 3.528m8.075-2.26h12.263v-2.472H91.466zm13.162 10.025c0-.487.389-.881.869-.881h1.738c.48 0 .869.394.869.88s-.389.88-.869.88h-1.738a.875.875 0 0 1-.869-.88"></path><path fill-rule="evenodd" clip-rule="evenodd" d="M21.287 0c11.457 0 20.745 9.41 20.745 21.016 0 11.608-9.288 21.017-20.745 21.017S.54 32.623.54 21.016 9.829 0 21.287 0m-.75 1.573c-2.367.337-4.62 2.264-6.37 5.486a22 22 0 0 0-1.364 3.082c2.379-.606 4.992-.963 7.734-1.018zm-9.487 9.073a24.4 24.4 0 0 1 1.803-4.32C13.72 4.73 14.75 3.35 15.91 2.292 9.604 4.146 4.633 9.18 2.802 15.569c1.046-1.175 2.407-2.218 3.984-3.096a24 24 0 0 1 4.264-1.827m-.499 1.776c-.597 2.41-.95 5.057-1.004 7.835H2.093c.333-2.398 2.235-4.68 5.416-6.453a21.5 21.5 0 0 1 3.042-1.382m.496 7.835c.062-3.032.492-5.878 1.205-8.393 2.483-.722 5.292-1.159 8.285-1.221v3.281a11.1 11.1 0 0 1-6.252 6.333zm-1.5 1.519H2.093c.333 2.398 2.235 4.68 5.416 6.453.922.514 1.942.978 3.042 1.382-.597-2.41-.95-5.057-1.004-7.835m2.705 8.393c-.713-2.515-1.143-5.361-1.205-8.393h3.238a11.1 11.1 0 0 1 6.252 6.333v3.281c-2.993-.062-5.802-.499-8.285-1.221m-1.203 1.218a24 24 0 0 1-4.263-1.827c-1.577-.878-2.938-1.921-3.984-3.096 1.831 6.388 6.802 11.423 13.107 13.278-1.16-1.06-2.189-2.438-3.056-4.036a24.4 24.4 0 0 1-1.803-4.319m9.488 9.073c-2.367-.337-4.62-2.264-6.37-5.486a22 22 0 0 1-1.364-3.082c2.379.606 4.992.963 7.734 1.018zm6.127-.718c1.16-1.06 2.19-2.438 3.056-4.036.7-1.29 1.308-2.741 1.804-4.319a24 24 0 0 0 4.263-1.827c1.577-.878 2.939-1.921 3.984-3.096-1.83 6.388-6.801 11.423-13.107 13.278m3.107-7.85a22 22 0 0 1-1.365 3.082c-1.75 3.222-4.003 5.149-6.37 5.486v-7.55c2.743-.055 5.356-.412 7.735-1.018m2.251-2.281c1.1-.404 2.12-.868 3.043-1.382 3.18-1.772 5.082-4.055 5.415-6.453h-7.453c-.055 2.778-.407 5.425-1.005 7.835m-.495-7.835c-.062 3.032-.493 5.878-1.206 8.393-2.482.722-5.292 1.159-8.284 1.221v-3.279a11.1 11.1 0 0 1 6.252-6.335zm1.5-1.52h7.453c-.333-2.397-2.235-4.68-5.415-6.452a21.5 21.5 0 0 0-3.043-1.382c.598 2.41.95 5.057 1.005 7.835m-2.706-8.392c.713 2.515 1.144 5.361 1.206 8.393H28.29a11.1 11.1 0 0 1-6.252-6.335v-3.28c2.992.063 5.802.5 8.284 1.222m1.203-1.218a24 24 0 0 1 4.263 1.827c1.577.878 2.939 1.92 3.984 3.096C37.941 9.18 32.97 4.146 26.664 2.29c1.16 1.059 2.19 2.438 3.056 4.036.7 1.29 1.308 2.741 1.804 4.319m-9.487-9.073c2.366.337 4.62 2.264 6.37 5.486.507.934.965 1.967 1.364 3.082-2.38-.606-4.992-.963-7.734-1.018z"></path></g><defs><clipPath id="a"><path fill="currentColor" d="M0 0h109v42H0z"></path></clipPath></defs></svg>