<svg xmlns="http://www.w3.org/2000/svg" width="136" height="42" viewBox="0 0 136 42" fill="none"><path d="M6.853 33.813q0 1.063.474 1.86.527.745 1.424 1.17.895.372 2.056.372 1.528 0 2.793-.638a5.1 5.1 0 0 0 2.109-1.86q.79-1.224.79-3.03l.844 3.189q0 2.339-1.318 3.934-1.265 1.594-3.32 2.392A11.3 11.3 0 0 1 8.486 42q-2.32 0-4.27-.904a7.57 7.57 0 0 1-3.057-2.605Q0 36.736 0 34.238q0-2.34 1.107-4.094t3.216-2.658q2.108-.957 5.166-.957 2.266 0 4.006.479 1.792.425 3.005 1.116 1.264.69 1.792 1.33v3.295a8.85 8.85 0 0 0-3.216-1.595 13 13 0 0 0-3.742-.531q-1.582 0-2.583.372-.949.372-1.424 1.063-.474.692-.474 1.755m-2.689-9.889-2.53-4.678q1.898-1.011 4.639-1.914 2.741-.957 6.115-.957 3.11 0 5.535.904 2.425.903 3.795 2.658 1.425 1.7 1.424 4.147v17.384H16.5V25.625q0-1.01-.37-1.7a2.95 2.95 0 0 0-.948-1.224q-.632-.48-1.529-.69a8.7 8.7 0 0 0-2.003-.213q-1.688 0-3.216.425-1.528.372-2.635.85-1.107.48-1.635.851m30.969-6.911v24.455h-6.747V17.013zm7.117 7.23a5 5 0 0 0-1.423-.957q-.685-.372-1.74-.372-1.266 0-2.161.691-.897.69-1.37 1.967-.423 1.223-.423 2.977l-1.897-1.967q0-2.924 1.107-5.157 1.106-2.286 2.846-3.615 1.793-1.329 3.743-1.329 1.318 0 2.53.478 1.212.48 1.898 1.383zm10.121 4.997q0 2.127.896 3.722a6.87 6.87 0 0 0 2.53 2.499q1.582.85 3.532.85 1.582 0 3.058-.478a9.2 9.2 0 0 0 2.635-1.33q1.213-.903 1.846-2.073v7.071q-1.266 1.17-3.321 1.861-2.003.638-4.64.638-3.9 0-7.01-1.595-3.058-1.595-4.85-4.466-1.74-2.925-1.74-6.698 0-3.828 1.74-6.7 1.792-2.87 4.85-4.465 3.11-1.595 7.01-1.595 2.636 0 4.64.691 2.055.69 3.32 1.755v7.124q-.632-1.17-1.897-2.02a9.2 9.2 0 0 0-2.689-1.383 8.7 8.7 0 0 0-2.952-.532q-1.95 0-3.532.957a7.3 7.3 0 0 0-2.53 2.552q-.896 1.596-.896 3.616M78.638 0v41.468h-6.853V0zm8.856 26.582q0-1.595-.422-2.711-.37-1.17-1.265-1.701-.896-.585-2.32-.585-1.422 0-2.53.638-1.054.585-1.687 1.701-.632 1.064-.632 2.658h-1.371q0-2.925 1.002-5.263 1-2.34 2.952-3.721 1.95-1.383 4.797-1.383t4.691 1.117q1.845 1.063 2.741 3.136t.897 5.157v15.843h-6.853zM99.707 7.55q0-1.702 1.16-2.818t2.899-1.117q1.74 0 2.899 1.117 1.213 1.116 1.213 2.817 0 1.649-1.213 2.765-1.16 1.116-2.899 1.116t-2.899-1.116-1.16-2.765m.738 9.463h6.589v24.455h-6.589zm28.491 9.57q0-1.595-.421-2.711-.369-1.17-1.266-1.701-.895-.585-2.319-.585t-2.53.638q-1.054.585-1.687 1.701t-.633 2.658v14.886h-6.853V17.013h6.853v3.721q1.107-2.073 2.952-3.137 1.845-1.116 4.428-1.116 2.9 0 4.745 1.116 1.898 1.118 2.846 3.243.95 2.075.949 4.998v15.63h-7.064z" fill="currentColor"></path></svg>