<svg xmlns="http://www.w3.org/2000/svg" width="32" height="32" viewBox="0 0 32 32" fill="none"><path d="m5.333 8 8.144 6.15.003.002c.904.663 1.356.995 1.852 1.123a2.7 2.7 0 0 0 1.336 0c.496-.129.95-.461 1.855-1.126 0 0 5.224-4.008 8.144-6.15M4 21.068V10.933c0-1.493 0-2.24.29-2.81.256-.503.664-.91 1.166-1.166.57-.29 1.317-.29 2.81-.29h15.468c1.493 0 2.239 0 2.81.29.501.256.91.663 1.166 1.165.29.57.29 1.316.29 2.807v10.142c0 1.49 0 2.236-.29 2.806a2.67 2.67 0 0 1-1.167 1.166c-.57.29-1.315.29-2.805.29H8.263c-1.491 0-2.237 0-2.807-.29a2.67 2.67 0 0 1-1.165-1.166C4 23.307 4 22.56 4 21.067" stroke="currentColor" stroke-width="2.667" stroke-linecap="round" stroke-linejoin="round"></path></svg>