<svg xmlns="http://www.w3.org/2000/svg" width="24" height="24" viewBox="0 0 24 24" fill="none"><mask id="a" style="mask-type:alpha" maskUnits="userSpaceOnUse" x="0" y="0" width="24" height="24"><path d="M24 0H0v23.985h24z" fill="currentColor"></path></mask><g mask="url(#a)"><path d="M5.96 11.2.07 22.97c-.1.22-.09.47.04.68.12.21.35.34.59.33h8.19c.27.01.52-.14.63-.39 1.77-3.65.7-9.2-2.4-12.52v.01a.71.71 0 0 0-.62-.27c-.23.03-.44.18-.54.39m17.937 12.45c.13-.21.14-.47.03-.68L12.627.37a.66.66 0 0 0-1.19.01 15.5 15.5 0 0 0-.91 15.32l3.95 7.9c.12.23.36.38.63.38h8.19c.24 0 .47-.12.6-.33" fill="currentColor"></path></g></svg>