<svg xmlns="http://www.w3.org/2000/svg" width="87" height="16" viewBox="0 0 87 16" fill="none"><path d="M8.347 16C3.2 16 0 12.846 0 8s3.2-8 8.347-8c5.263 0 8.44 3.154 8.44 8s-3.177 8-8.44 8m0-3.34c3.409 0 4.73-1.205 4.73-4.66s-1.322-4.66-4.73-4.66S3.687 4.544 3.687 8s1.252 4.66 4.66 4.66m12.739 3.108h-3.478V.232h8.579c3.826 0 6.005 1.693 6.005 4.66 0 2.528-1.46 4.036-4.382 4.314v.185c1.391.371 1.925 1.113 2.504 2.203l2.25 4.174h-4.035l-2.133-4.035c-.626-1.206-1.206-1.6-3.015-1.6h-2.295zm0-12.406v4.151h5.078c1.646 0 2.388-.464 2.388-2.087 0-1.53-.742-2.064-2.388-2.064zm22.175 12.406h-4.962L31.853.232h4.197l4.66 12.012h.232L45.533.231h4.174zm9.968 0H49.75V.232h3.478zm3.977 0H53.31L60.104.232h4.962l6.84 15.536h-3.988l-1.46-3.432H58.69zm4.29-9.948-1.462 3.386h5.078l-1.46-3.386-.952-2.41h-.255zM75.5 15.768h-3.478V.232h3.71l5.564 7.35 2.133 3.27h.255l-.162-3.13V.232H87v15.536h-3.71l-5.727-7.42-1.97-2.922h-.233l.14 2.852z" fill="currentColor"></path></svg>